#!OML:ASF E:/inclinewalkrobotboard/Project1/Captureday1/Session1/subject1.ASF
:FULLY-SPECIFIED
:DEGREES
38
root 0 0 0 -1.5856309725857627 -4.291043087297708 -5.867514999587431
lowerback 10.036134616429456 1.8895957496760016 3.902970018800652
upperback 0.006564079336210615 3.029361546159881 1.3326250143063931
thorax -5.579810715446808 1.4038973600567703 -1.2499510418811703
lowerneck -14.171573089199093 -3.1538652896044717 -0.8890010006847597
upperneck 16.541347946386303 -4.3383631040421164 1.451914598063769
head 7.687096061232598 -2.0177902067405236 0.1672555508472262
rclavicle -2.388665945269825E-16 -1.191301973907248E-16
rhumerus -20.144694575545305 -7.910515918232479 -67.98249426588157
rradius 58.73152915436354
rwrist -7.458282539146545
rhand -13.61793764319476 -7.120536576932517
rfingers 7.125019999999873
rthumb 12.519875014534716 -36.40266069571384
lclavicle -7.074891983555865E-16 -3.325886298925834E-16
lhumerus -39.36463912920823 0.12182202618350654 83.26874003214466
lradius 38.18065411638907
lwrist 2.8430477135297245
lhand -19.632101522297724 1.4174682230324382
lfingers 7.125019999999879
lthumb 6.606336346716226 30.914401620032365
rfemur -6.2729525230046885 4.571870919782321 19.657616492365094
rtibia 20.46619519585932
rfoot -9.451035721957751 -4.741363315335424
rtoes 0.009046755028396802
lfemur -15.636025631105479 -1.547298057968305 -13.345703225875276
ltibia 38.20256405856995
lfoot -8.094580930976205 0.13340977773215013
ltoes -18.253159195002315
39
root 0 0 0 -1.6261941039061225 -5.029417019529692 -6.934230256870598
lowerback 10.068064518926658 2.325398275646412 5.121556591832927
upperback 0.012065277126254048 3.7650237509069133 1.383426304284943
thorax -5.570735620616956 1.7359641843430889 -1.9733253810909777
lowerneck -14.397320026063527 -3.2809327889321223 -0.8781322578706267
upperneck 16.845625524298 -4.531161642746015 1.4435112257016671
head 7.818274443855894 -2.1035453149747654 0.13489563021090298
rclavicle -2.102034901522393E-16 -1.1036074499523123E-16
rhumerus -19.652374624715836 -7.379785178588212 -67.44705753164138
rradius 60.378862316220236
rwrist -8.05268874095346
rhand -13.39909615228753 -8.658337293294814
rfingers 7.125019999999864
rthumb 12.731156174239047 -37.90836653143538
lclavicle -7.639191416927811E-16 -3.494267773817216E-16
lhumerus -39.72792156935814 0.1686544644113047 83.29457634250446
lradius 38.616308752488735
lwrist 2.6858931411701
lhand -19.27793218698175 0.3409325812741866
lfingers 7.125019999999873
lthumb 6.940052051202176 29.819428489462563
rfemur -5.026621931002058 4.229617585505233 18.60298677210335
rtibia 20.185514137021507
rfoot -8.26404442073352 -4.061366901576559
rtoes 0.5275783159870223
lfemur -16.231177135110958 -1.4858456304683103 -13.061449882588683
ltibia 38.694393011345085
lfoot -7.83996418102932 0.07777796711050122
ltoes -18.252900761983007
40
root 0 0 0 -1.6572276584161063 -5.201818461156082 -7.16445151393337
lowerback 10.079858186502047 2.4170116076831145 5.397945180931308
upperback 0.021793472173342876 3.924323537270187 1.4015141865267595
thorax -5.558883704590965 1.8073620972818216 -2.1271802421388823
lowerneck -14.49367529300758 -3.310139961347364 -0.8912758064158273
upperneck 17.001923769212063 -4.5702073496544395 1.4219912736000675
head 7.871940977086341 -2.122800478115075 0.12278360094050333
rclavicle -1.7405331660771604E-16 -8.656908620850781E-17
rhumerus -19.276442589838513 -6.944920053681413 -67.02812997514953
rradius 61.692523841202075
rwrist -8.525006366778634
rhand -13.220923798351748 -9.906422735156543
rfingers 7.125019999999857
rthumb 12.906147778790965 -39.13105790860244
lclavicle -8.073772325269506E-16 -3.7228591516597823E-16
lhumerus -40.054607946298596 0.22630127813572798 83.32336855093207
lradius 38.9684040558916
lwrist 2.535145648113436
lhand -18.96153061781613 -0.6099006710938699
lfingers 7.125019999999867
lthumb 7.238328995634245 28.85827167824715
rfemur -4.466980797433423 3.4538021054228536 16.8031770127375
rtibia 21.824026630384388
rfoot -5.605345391732014 -3.1621602825618833
rtoes 1.7910073803597462
lfemur -16.218319348037983 -1.5491187680679634 -12.980997051284778
ltibia 38.334847048851884
lfoot -8.096549111320213 0.3148999265107255
ltoes -18.704318311744277
41
root 0 0 0 -1.674136886167846 -5.242801080037655 -7.204703973817731
lowerback 10.085524714085148 2.4344210013314096 5.454231021593297
upperback 0.027187078485401694 3.956625653823363 1.4070361318692215
thorax -5.551624651873318 1.8211538723569252 -2.1554931721562838
lowerneck -14.53141458437828 -3.3167281129633235 -0.9010981338485926
upperneck 17.079057952351462 -4.577115113436513 1.4083464789613465
head 7.89351185291336 -2.1271822053772818 0.11832380703542639
rclavicle -1.5931579300848506E-16 -6.630807133952808E-17
rhumerus -19.124201253804337 -6.748600309277897 -66.84255446129394
rradius 62.27946678010723
rwrist -8.729943933333548
rhand -13.137430847294302 -10.478127550529623
rfingers 7.1250199999998545
rthumb 12.988643078257205 -39.69036058090592
lclavicle -8.495250751801847E-16 -3.902508341352567E-16
lhumerus -40.35532385159213 0.2794332694743548 83.35124126811995
lradius 39.292126208026865
lwrist 2.3940296292985725
lhand -18.6662861433819 -1.498459471238391
lfingers 7.125019999999862
lthumb 7.515937497288068 27.96258447125407
rfemur -5.805376133086231 2.2594613904244154 14.870728433958215
rtibia 27.209839910445453
rfoot -1.4089909947902048 -2.3840084061968385
rtoes 4.0195866581784205
lfemur -15.478647352745039 -1.7512436857520977 -13.122789188616816
ltibia 37.0441645636638
lfoot -8.944418719656335 0.8842897005302444
ltoes -19.76576877114098
42
root 0 0 0 -1.6766212527035442 -5.247057753573775 -7.204266802946947
lowerback 10.086730416327983 2.4374632835994623 5.45464681010019
upperback 0.027250013363384284 3.962057562391178 1.4047380885827603
thorax -5.550530076862472 1.823129852621212 -2.158287396089987
lowerneck -14.526924991903105 -3.317442009155262 -0.9009693148812066
upperneck 17.084738404473576 -4.578701069793896 1.4081926019712103
head 7.892525087451284 -2.1280474236974354 0.11850038850546679
rclavicle -1.5914442392625988E-16 -6.282720334170375E-17
rhumerus -19.17450618608981 -6.789463346440204 -66.89299351449382
rradius 62.1385163965499
rwrist -8.676822621581959
rhand -13.153369858092066 -10.36068034103318
rfingers 7.125019999999855
rthumb 12.973320914396636 -39.575124006674876
lclavicle -8.594270273647587E-16 -3.969742688144137E-16
lhumerus -40.42216066070354 0.2943354496224512 83.35866414462961
lradius 39.355213747507364
lwrist 2.361411258042476
lhand -18.60314099068198 -1.6910121924517014
lfingers 7.125019999999861
lthumb 7.576502280986749 27.772010258181133
rfemur -6.788274029686468 2.0499737105439633 14.824825543679637
rtibia 29.19067385248779
rfoot -0.6192605153989235 -2.4487127091377223
rtoes 4.5584288660150545
lfemur -14.72777309303844 -1.918797451862672 -13.322944564426933
ltibia 35.93611474976216
lfoot -9.655287154492479 1.3185066840673052
ltoes -20.551098617776212
43
root 0 0 0 -1.6697900454125523 -5.250789277785736 -7.213401282003122
lowerback 10.084601145697333 2.444860024079941 5.457926792607583
upperback 0.023559806987348608 3.9730037478181646 1.3990387359218355
thorax -5.5529490247535485 1.8277207374908415 -2.167579229334974
lowerneck -14.498709946437476 -3.3174781778850164 -0.8923101872426898
upperneck 17.053123464236496 -4.58180848311105 1.4161765190568136
head 7.8799113423722265 -2.1287941374698067 0.12043576860435146
rclavicle -1.589604897669579E-16 -6.103482342889303E-17
rhumerus -19.215129931203077 -6.824551023219515 -66.939035168203
rradius 62.00958401094509
rwrist -8.631871907591862
rhand -13.168892818473172 -10.251869435450224
rfingers 7.125019999999856
rthumb 12.958812192985846 -39.46673862812538
lclavicle -8.549789739727255E-16 -3.9689873410255405E-16
lhumerus -40.42715830617681 0.29346550527255805 83.36040296180292
lradius 39.363340368246504
lwrist 2.358527925153304
lhand -18.596439276002435 -1.7130722898336703
lfingers 7.125019999999861
lthumb 7.58368742359644 27.75114276164194
rfemur -7.038654002096896 2.2851892068903954 15.304467020561102
rtibia 28.554413951000555
rfoot -1.472838715603414 -2.7554140230071047
rtoes 4.11742093414507
lfemur -13.724168412282246 -2.1427604653934567 -13.564075559506064
ltibia 34.47254204456535
lfoot -10.62622844326267 1.915447171568399
ltoes -21.711116831614742
44
root 0 0 0 -1.6619179070331485 -5.251313068728383 -7.220908599202767
lowerback 10.081904866002825 2.4498498065918586 5.459431129787357
upperback 0.01995725577974139 3.9797162572220053 1.3947508219610303
thorax -5.5556918539959534 1.830695606324837 -2.174196673884425
lowerneck -14.474073375845522 -3.3170582830239637 -0.8842487432514619
upperneck 17.020686005546352 -4.58381139172203 1.4239365383381801
head 7.868625125708755 -2.1289646516350853 0.12223153606148912
rclavicle -1.5878790722375444E-16 -5.994265645325414E-17
rhumerus -19.249068519741886 -6.855095796551979 -66.97832547712159
rradius 61.89859964824848
rwrist -8.594163377997845
rhand -13.182641144354832 -10.155833525113822
rfingers 7.125019999999856
rthumb 12.945888603221753 -39.37188512888166
lclavicle -8.469253723526633E-16 -3.9720563003712685E-16
lhumerus -40.39834800049197 0.2880318703331282 83.35878382572476
lradius 39.33306442022149
lwrist 2.3707721615764905
lhand -18.622923613200733 -1.6339424172069528
lfingers 7.125019999999861
lthumb 7.558962314073597 27.832633489006884
rfemur -6.626921987537372 2.7468069537874253 15.930994565818827
rtibia 26.11000879721608
rfoot -3.2174202773318186 -3.1142544191551624
rtoes 3.082900414167246
lfemur -12.468049184275172 -2.4131483928847395 -13.881962754251822
ltibia 32.700990792332654
lfoot -11.793767882690112 2.6128007331372753
ltoes -23.082894686103696
45
root 0 0 0 -1.6572791217793554 -5.243260291640142 -7.213702761385466
lowerback 10.080192562173545 2.4470810478792413 5.448607962174127
upperback 0.018180514081050925 3.9739763865825446 1.3931893845687604
thorax -5.5572783111952315 1.8283149815754332 -2.1695636166370242
lowerneck -14.46373934803328 -3.3157513523155355 -0.8813214040527294
upperneck 17.00250780250123 -4.582798555718377 1.4278500415929996
head 7.863802821426024 -2.128086402099481 0.12336088353466934
rclavicle -1.5855883570649556E-16 -6.004557473641275E-17
rhumerus -19.28260732038377 -6.885939599122061 -67.01498648691198
rradius 61.792206363300956
rwrist -8.557345362740094
rhand -13.195819132883795 -10.061973484111524
rfingers 7.125019999999857
rthumb 12.933211120737184 -39.27970152069618
lclavicle -8.416036333586328E-16 -3.985789968683205E-16
lhumerus -40.3721632727082 0.2850970492399852 83.35693588872336
lradius 39.30178012684211
lwrist 2.381203768036257
lhand -18.64782405578258 -1.5573734958244767
lfingers 7.125019999999862
lthumb 7.5352644969142215 27.910568258305606
rfemur -5.917903755661232 3.1938068425984536 16.403758716383898
rtibia 23.23277409184104
rfoot -4.951762470276237 -3.3829065944992225
rtoes 1.9834067236140736
lfemur -11.106659999309056 -2.682818960742294 -14.288783526354809
ltibia 30.900603766260982
lfoot -12.935893888125332 3.246813851837535
ltoes -24.278115234955116
